<?xml version="1.0" encoding="iso-8859-1"?>
<!-- Generator: Adobe Illustrator 19.0.0, SVG Export Plug-In . SVG Version: 6.00 Build 0)  -->
<svg version="1.1" id="Layer_1" xmlns="http://www.w3.org/2000/svg" xmlns:xlink="http://www.w3.org/1999/xlink" x="0px" y="0px"
	 viewBox="0 0 512 512" style="enable-background:new 0 0 512 512;" xml:space="preserve">
<circle style="fill:#FF7F4F;" cx="256" cy="256" r="256"/>
<path style="fill:#D35933;" d="M134.749,265.933L359.16,490.344c58.551-25.812,105.593-72.916,131.327-131.51L260.649,128.998
	L134.749,265.933z"/>
<rect x="250.999" y="222.557" transform="matrix(-0.7071 0.7071 -0.7071 -0.7071 640.3008 265.2245)" style="fill:#386895;" width="28.444" height="85.333"/>
<g>
	
		<rect x="252.995" y="227.399" transform="matrix(-0.7071 0.7071 -0.7071 -0.7071 635.4282 276.9284)" style="fill:#273B7A;" width="14.731" height="85.333"/>
	<circle style="fill:#273B7A;" cx="194.819" cy="194.819" r="93.091"/>
</g>
<path style="fill:#121149;" d="M129.367,128.648c-0.121,0.119-0.248,0.229-0.369,0.35c-36.354,36.354-36.354,95.296,0,131.65
	s95.296,36.354,131.651,0c0.121-0.121,0.231-0.248,0.35-0.369L129.367,128.648z"/>
<circle style="fill:#38C6D9;" cx="194.819" cy="194.819" r="71.111"/>
<path style="fill:#02B2B2;" d="M144.908,144.189c-0.121,0.119-0.248,0.229-0.369,0.35c-27.77,27.77-27.77,72.795,0,100.566
	s72.795,27.77,100.566,0c0.121-0.121,0.231-0.247,0.35-0.369L144.908,144.189z"/>
<path style="fill:#273B7A;" d="M407.028,384.883l-22.145,22.145c-4.32,4.32-11.324,4.32-15.643,0L264.204,301.992
	c-4.32-4.32-4.32-11.323,0-15.643l22.145-22.145c4.32-4.32,11.324-4.32,15.643,0L407.028,369.24
	C411.348,373.56,411.348,380.563,407.028,384.883z"/>
<path style="fill:#121149;" d="M275.635,274.916l-11.431,11.431c-4.32,4.32-4.32,11.324,0,15.643L369.24,407.026
	c4.32,4.32,11.323,4.32,15.643,0l11.433-11.431L275.635,274.916z"/>
<g>
</g>
<g>
</g>
<g>
</g>
<g>
</g>
<g>
</g>
<g>
</g>
<g>
</g>
<g>
</g>
<g>
</g>
<g>
</g>
<g>
</g>
<g>
</g>
<g>
</g>
<g>
</g>
<g>
</g>
</svg>
